<mxfile host="app.diagrams.net" agent="Mozilla/5.0 (X11; Linux x86_64) AppleWebKit/537.36 (KHTML, like Gecko) Chrome/140.0.0.0 Safari/537.36" version="28.2.0">
  <diagram name="Página-1" id="R4MLHaw1RsGRZBGLi2FN">
    <mxGraphModel dx="1146" dy="574" grid="1" gridSize="10" guides="1" tooltips="1" connect="1" arrows="1" fold="1" page="1" pageScale="1" pageWidth="827" pageHeight="1169" math="0" shadow="0">
      <root>
        <mxCell id="0" />
        <mxCell id="1" parent="0" />
        <mxCell id="0DuIZYB2jZfA5ApWnlZL-5" style="edgeStyle=orthogonalEdgeStyle;rounded=0;orthogonalLoop=1;jettySize=auto;html=1;" parent="1" source="0DuIZYB2jZfA5ApWnlZL-1" target="0DuIZYB2jZfA5ApWnlZL-2" edge="1">
          <mxGeometry relative="1" as="geometry" />
        </mxCell>
        <mxCell id="0DuIZYB2jZfA5ApWnlZL-1" value="Cargamos la data" style="shape=cylinder3;whiteSpace=wrap;html=1;boundedLbl=1;backgroundOutline=1;size=15;" parent="1" vertex="1">
          <mxGeometry x="40" y="60" width="60" height="80" as="geometry" />
        </mxCell>
        <mxCell id="0DuIZYB2jZfA5ApWnlZL-6" style="edgeStyle=orthogonalEdgeStyle;rounded=0;orthogonalLoop=1;jettySize=auto;html=1;entryX=0;entryY=0.5;entryDx=0;entryDy=0;" parent="1" source="0DuIZYB2jZfA5ApWnlZL-2" target="0DuIZYB2jZfA5ApWnlZL-4" edge="1">
          <mxGeometry relative="1" as="geometry" />
        </mxCell>
        <mxCell id="0DuIZYB2jZfA5ApWnlZL-2" value="Pasamos el texto a minúsculas,&amp;nbsp;&lt;div&gt;Eliminamos los espacios en blanco al inicio y al final&lt;/div&gt;" style="rounded=0;whiteSpace=wrap;html=1;" parent="1" vertex="1">
          <mxGeometry x="190" y="60" width="160" height="80" as="geometry" />
        </mxCell>
        <mxCell id="0DuIZYB2jZfA5ApWnlZL-10" style="edgeStyle=orthogonalEdgeStyle;rounded=0;orthogonalLoop=1;jettySize=auto;html=1;entryX=0.5;entryY=0;entryDx=0;entryDy=0;" parent="1" source="0DuIZYB2jZfA5ApWnlZL-3" target="0DuIZYB2jZfA5ApWnlZL-9" edge="1">
          <mxGeometry relative="1" as="geometry" />
        </mxCell>
        <mxCell id="0DuIZYB2jZfA5ApWnlZL-3" value="Pasamos las etiquetas a binarias&amp;nbsp;" style="rounded=0;whiteSpace=wrap;html=1;" parent="1" vertex="1">
          <mxGeometry x="650" y="60" width="160" height="80" as="geometry" />
        </mxCell>
        <mxCell id="0DuIZYB2jZfA5ApWnlZL-7" style="edgeStyle=orthogonalEdgeStyle;rounded=0;orthogonalLoop=1;jettySize=auto;html=1;entryX=0;entryY=0.5;entryDx=0;entryDy=0;" parent="1" source="0DuIZYB2jZfA5ApWnlZL-4" target="0DuIZYB2jZfA5ApWnlZL-3" edge="1">
          <mxGeometry relative="1" as="geometry" />
        </mxCell>
        <mxCell id="0DuIZYB2jZfA5ApWnlZL-4" value="Convertimos cada fila en una lista&amp;nbsp;" style="rounded=0;whiteSpace=wrap;html=1;" parent="1" vertex="1">
          <mxGeometry x="430" y="60" width="160" height="80" as="geometry" />
        </mxCell>
        <mxCell id="0DuIZYB2jZfA5ApWnlZL-12" style="edgeStyle=orthogonalEdgeStyle;rounded=0;orthogonalLoop=1;jettySize=auto;html=1;" parent="1" source="0DuIZYB2jZfA5ApWnlZL-9" target="0DuIZYB2jZfA5ApWnlZL-11" edge="1">
          <mxGeometry relative="1" as="geometry" />
        </mxCell>
        <mxCell id="0DuIZYB2jZfA5ApWnlZL-20" style="edgeStyle=orthogonalEdgeStyle;rounded=0;orthogonalLoop=1;jettySize=auto;html=1;entryX=0.5;entryY=0;entryDx=0;entryDy=0;" parent="1" source="0DuIZYB2jZfA5ApWnlZL-9" target="0DuIZYB2jZfA5ApWnlZL-21" edge="1">
          <mxGeometry relative="1" as="geometry">
            <mxPoint x="259.9999999999998" y="590" as="targetPoint" />
            <Array as="points">
              <mxPoint x="730" y="550" />
              <mxPoint x="120" y="550" />
            </Array>
          </mxGeometry>
        </mxCell>
        <mxCell id="0DuIZYB2jZfA5ApWnlZL-9" value="&lt;code style=&quot;text-align: left; white-space-collapse: preserve; font-family: inherit; scrollbar-color: transparent transparent; margin: 0px 4px; padding: 2px 6px; border: 0px; font-variant-numeric: inherit; font-variant-east-asian: inherit; font-variant-alternates: inherit; font-variant-position: inherit; font-variant-emoji: inherit; font-stretch: inherit; font-size: 16px; line-height: inherit; font-optical-sizing: inherit; font-size-adjust: inherit; font-kerning: inherit; font-feature-settings: inherit; font-variation-settings: inherit; vertical-align: baseline; color: rgba(0, 0, 0, 0.9); background-color: rgba(0, 0, 0, 0.03); border-radius: 4px; max-width: 100%; word-break: break-word; text-shadow: none; overflow: auto;&quot; data-v-7caec4f8=&quot;&quot; data-v-a1ee3016=&quot;&quot; class=&quot;segment-code-inline&quot;&gt;lasses=[...]&lt;/code&gt;&lt;span style=&quot;text-align: left; white-space-collapse: preserve; color: rgba(0, 0, 0, 0.9); font-family: -apple-system, BlinkMacSystemFont, &amp;quot;Segoe UI&amp;quot;, system-ui, -apple-system, &amp;quot;Segoe UI&amp;quot;, Roboto, Ubuntu, Cantarell, &amp;quot;Noto Sans&amp;quot;, sans-serif, Arial, &amp;quot;PingFang SC&amp;quot;, &amp;quot;Source Han Sans SC&amp;quot;, &amp;quot;Microsoft YaHei UI&amp;quot;, &amp;quot;Microsoft YaHei&amp;quot;, &amp;quot;Noto Sans CJK SC&amp;quot;, sans-serif; font-size: 16px; background-color: rgb(255, 255, 255); float: none; display: inline !important;&quot;&gt;: le dice al binarizador &lt;/span&gt;&lt;span style=&quot;text-align: left; white-space-collapse: preserve; font-family: -apple-system, BlinkMacSystemFont, &amp;quot;Segoe UI&amp;quot;, system-ui, -apple-system, &amp;quot;Segoe UI&amp;quot;, Roboto, Ubuntu, Cantarell, &amp;quot;Noto Sans&amp;quot;, sans-serif, Arial, &amp;quot;PingFang SC&amp;quot;, &amp;quot;Source Han Sans SC&amp;quot;, &amp;quot;Microsoft YaHei UI&amp;quot;, &amp;quot;Microsoft YaHei&amp;quot;, &amp;quot;Noto Sans CJK SC&amp;quot;, sans-serif; scrollbar-color: transparent transparent; margin: 0px; padding: 0px; border: 0px; font-variant-numeric: inherit; font-variant-east-asian: inherit; font-variant-alternates: inherit; font-variant-position: inherit; font-variant-emoji: inherit; font-weight: 600; font-stretch: inherit; font-size: 16px; line-height: inherit; font-optical-sizing: inherit; font-size-adjust: inherit; font-kerning: inherit; font-feature-settings: inherit; font-variation-settings: inherit; vertical-align: baseline; color: rgba(0, 0, 0, 0.9); background-color: rgb(255, 255, 255);&quot; class=&quot;&quot;&gt;exactamente&lt;/span&gt;&lt;span style=&quot;text-align: left; white-space-collapse: preserve; color: rgba(0, 0, 0, 0.9); font-family: -apple-system, BlinkMacSystemFont, &amp;quot;Segoe UI&amp;quot;, system-ui, -apple-system, &amp;quot;Segoe UI&amp;quot;, Roboto, Ubuntu, Cantarell, &amp;quot;Noto Sans&amp;quot;, sans-serif, Arial, &amp;quot;PingFang SC&amp;quot;, &amp;quot;Source Han Sans SC&amp;quot;, &amp;quot;Microsoft YaHei UI&amp;quot;, &amp;quot;Microsoft YaHei&amp;quot;, &amp;quot;Noto Sans CJK SC&amp;quot;, sans-serif; font-size: 16px; background-color: rgb(255, 255, 255); float: none; display: inline !important;&quot;&gt; qué columnas debe crear.&lt;/span&gt;" style="rounded=0;whiteSpace=wrap;html=1;" parent="1" vertex="1">
          <mxGeometry x="650" y="190" width="160" height="80" as="geometry" />
        </mxCell>
        <mxCell id="0DuIZYB2jZfA5ApWnlZL-11" value="&lt;pre data-v-efb858b9=&quot;&quot; class=&quot;language-python&quot; style=&quot;font-family: &amp;quot;Fira Code&amp;quot;, &amp;quot;Fira Mono&amp;quot;, Menlo, Consolas, &amp;quot;DejaVu Sans Mono&amp;quot;, monospace; scrollbar-color: transparent transparent; margin: 0.5em 0px; padding: 16px; border: 0px; font-style: normal; font-variant-ligatures: normal; font-variant-caps: normal; font-variant-numeric: inherit; font-variant-east-asian: inherit; font-variant-alternates: inherit; font-variant-position: inherit; font-variant-emoji: inherit; font-weight: 400; font-stretch: inherit; font-size: 14px; line-height: 1.5; font-optical-sizing: inherit; font-size-adjust: inherit; font-kerning: inherit; font-feature-settings: inherit; font-variation-settings: inherit; vertical-align: baseline; color: rgb(56, 58, 66); direction: ltr; text-align: left; white-space: pre; word-spacing: 0px; word-break: normal; tab-size: 2; hyphens: none; overflow: auto; border-radius: 0px; background: none 0% 0% / auto repeat scroll padding-box border-box rgb(255, 255, 255); letter-spacing: 0.5px; orphans: 2; text-indent: 0px; text-transform: none; widows: 2; -webkit-text-stroke-width: 0px; text-decoration-thickness: initial; text-decoration-style: initial; text-decoration-color: initial;&quot;&gt;&lt;code class=&quot;language-python&quot; style=&quot;font-family: &amp;quot;Fira Code&amp;quot;, &amp;quot;Fira Mono&amp;quot;, Menlo, Consolas, &amp;quot;DejaVu Sans Mono&amp;quot;, monospace; scrollbar-color: transparent transparent; margin: 0px; padding: 0px; border: 0px; font-style: inherit; font-variant: inherit; font-weight: inherit; font-stretch: inherit; font-size: inherit; line-height: 1.5; font-optical-sizing: inherit; font-size-adjust: inherit; font-kerning: inherit; font-feature-settings: inherit; font-variation-settings: inherit; vertical-align: baseline; color: rgb(56, 58, 66); direction: ltr; text-align: left; white-space: pre-wrap; word-spacing: normal; word-break: break-word; tab-size: 2; hyphens: none; max-width: 100%; text-shadow: none; overflow: auto;&quot;&gt;&lt;span class=&quot;token keyword&quot; style=&quot;font: inherit; scrollbar-color: transparent transparent; margin: 0px; padding: 0px; border: 0px; vertical-align: baseline; color: rgb(166, 38, 164);&quot;&gt;for&lt;/span&gt; i&lt;span class=&quot;token punctuation&quot; style=&quot;font: inherit; scrollbar-color: transparent transparent; margin: 0px; padding: 0px; border: 0px; vertical-align: baseline; color: rgb(56, 58, 66);&quot;&gt;,&lt;/span&gt; col &lt;span class=&quot;token keyword&quot; style=&quot;font: inherit; scrollbar-color: transparent transparent; margin: 0px; padding: 0px; border: 0px; vertical-align: baseline; color: rgb(166, 38, 164);&quot;&gt;in&lt;/span&gt; &lt;span class=&quot;token builtin&quot; style=&quot;font: inherit; scrollbar-color: transparent transparent; margin: 0px; padding: 0px; border: 0px; vertical-align: baseline; color: rgb(80, 161, 79);&quot;&gt;enumerate&lt;/span&gt;&lt;span class=&quot;token punctuation&quot; style=&quot;font: inherit; scrollbar-color: transparent transparent; margin: 0px; padding: 0px; border: 0px; vertical-align: baseline; color: rgb(56, 58, 66);&quot;&gt;(&lt;/span&gt;mlb&lt;span class=&quot;token punctuation&quot; style=&quot;font: inherit; scrollbar-color: transparent transparent; margin: 0px; padding: 0px; border: 0px; vertical-align: baseline; color: rgb(56, 58, 66);&quot;&gt;.&lt;/span&gt;classes_&lt;span class=&quot;token punctuation&quot; style=&quot;font: inherit; scrollbar-color: transparent transparent; margin: 0px; padding: 0px; border: 0px; vertical-align: baseline; color: rgb(56, 58, 66);&quot;&gt;)&lt;/span&gt;&lt;span class=&quot;token punctuation&quot; style=&quot;font: inherit; scrollbar-color: transparent transparent; margin: 0px; padding: 0px; border: 0px; vertical-align: baseline; color: rgb(56, 58, 66);&quot;&gt;:&lt;/span&gt;&#xa;    challenge&lt;span class=&quot;token punctuation&quot; style=&quot;font: inherit; scrollbar-color: transparent transparent; margin: 0px; padding: 0px; border: 0px; vertical-align: baseline; color: rgb(56, 58, 66);&quot;&gt;[&lt;/span&gt;col&lt;span class=&quot;token punctuation&quot; style=&quot;font: inherit; scrollbar-color: transparent transparent; margin: 0px; padding: 0px; border: 0px; vertical-align: baseline; color: rgb(56, 58, 66);&quot;&gt;]&lt;/span&gt; &lt;span class=&quot;token operator&quot; style=&quot;font: inherit; scrollbar-color: transparent transparent; margin: 0px; padding: 0px; border: 0px; vertical-align: baseline; color: rgb(64, 120, 242);&quot;&gt;=&lt;/span&gt; Y&lt;span class=&quot;token punctuation&quot; style=&quot;font: inherit; scrollbar-color: transparent transparent; margin: 0px; padding: 0px; border: 0px; vertical-align: baseline; color: rgb(56, 58, 66);&quot;&gt;[&lt;/span&gt;&lt;span class=&quot;token punctuation&quot; style=&quot;font: inherit; scrollbar-color: transparent transparent; margin: 0px; padding: 0px; border: 0px; vertical-align: baseline; color: rgb(56, 58, 66);&quot;&gt;:&lt;/span&gt;&lt;span class=&quot;token punctuation&quot; style=&quot;font: inherit; scrollbar-color: transparent transparent; margin: 0px; padding: 0px; border: 0px; vertical-align: baseline; color: rgb(56, 58, 66);&quot;&gt;,&lt;/span&gt; i&lt;span class=&quot;token punctuation&quot; style=&quot;font: inherit; scrollbar-color: transparent transparent; margin: 0px; padding: 0px; border: 0px; vertical-align: baseline; color: rgb(56, 58, 66);&quot;&gt;]&lt;/span&gt;&lt;/code&gt;&lt;/pre&gt;" style="text;whiteSpace=wrap;html=1;" parent="1" vertex="1">
          <mxGeometry x="116" y="175" width="400" height="110" as="geometry" />
        </mxCell>
        <mxCell id="0DuIZYB2jZfA5ApWnlZL-15" value="&lt;ul start=&quot;1&quot; style=&quot;scrollbar-color: rgba(0, 0, 0, 0.25) rgba(0, 0, 0, 0); margin: 0px 0px 16px; padding: 0px 0px 0px 24px; border: 0px; font-variant-numeric: inherit; font-variant-east-asian: inherit; font-variant-alternates: inherit; font-variant-position: inherit; font-variant-emoji: inherit; font-stretch: inherit; line-height: inherit; font-optical-sizing: inherit; font-size-adjust: inherit; font-kerning: inherit; font-feature-settings: inherit; font-variation-settings: inherit; vertical-align: baseline; list-style: disc; orphans: 2; text-align: start; text-indent: 0px; widows: 2; background-color: rgb(255, 255, 255); text-decoration-thickness: initial; text-decoration-style: initial; text-decoration-color: initial; color: rgba(0, 0, 0, 0.9);&quot;&gt;&lt;li style=&quot;font-variant-numeric: inherit; font-variant-east-asian: inherit; font-variant-alternates: inherit; font-variant-position: inherit; font-variant-emoji: inherit; font-stretch: inherit; line-height: inherit; font-optical-sizing: inherit; font-size-adjust: inherit; font-kerning: inherit; font-feature-settings: inherit; font-variation-settings: inherit; scrollbar-color: rgba(0, 0, 0, 0.25) rgba(0, 0, 0, 0); margin: 0px 0px 12px; padding: 0px; border: 0px; vertical-align: baseline;&quot;&gt;&lt;div class=&quot;paragraph&quot; style=&quot;font-variant-alternates: inherit; font-variant-numeric: inherit; font-variant-east-asian: inherit; font-variant-position: inherit; font-variant-emoji: inherit; scrollbar-color: rgba(0, 0, 0, 0.25) rgba(0, 0, 0, 0); margin: 0px; padding: 0px; border: 0px; font-stretch: inherit; line-height: 26px; font-optical-sizing: inherit; font-size-adjust: inherit; font-kerning: inherit; font-feature-settings: inherit; font-variation-settings: inherit; vertical-align: baseline; max-width: 100%; word-break: break-word; text-shadow: none;&quot;&gt;&lt;font style=&quot;font-size: 12px;&quot; face=&quot;-apple-system, BlinkMacSystemFont, Segoe UI, system-ui, -apple-system, Segoe UI, Roboto, Ubuntu, Cantarell, Noto Sans, sans-serif, Arial, PingFang SC, Source Han Sans SC, Microsoft YaHei UI, Microsoft YaHei, Noto Sans CJK SC, sans-serif&quot; color=&quot;rgba(0, 0, 0, 0.9)&quot;&gt;&lt;span style=&quot;white-space-collapse: preserve;&quot;&gt;Recorre los nombres de las clases ([&#39;cardiovascular&#39;, &#39;neurological&#39;, &#39;hepatorenal&#39;, &#39;oncological&#39;]).&lt;br&gt;Crea una nueva columna en challenge para cada clase.&lt;br&gt;Rellena esa columna con los valores binarios correspondientes de Y.&lt;/span&gt;&lt;/font&gt;&lt;/div&gt;&lt;/li&gt;&lt;/ul&gt;&lt;div&gt;&lt;font face=&quot;-apple-system, BlinkMacSystemFont, Segoe UI, system-ui, -apple-system, Segoe UI, Roboto, Ubuntu, Cantarell, Noto Sans, sans-serif, Arial, PingFang SC, Source Han Sans SC, Microsoft YaHei UI, Microsoft YaHei, Noto Sans CJK SC, sans-serif&quot; color=&quot;rgba(0, 0, 0, 0.9)&quot;&gt;&lt;span style=&quot;white-space-collapse: preserve;&quot;&gt;&lt;br&gt;&lt;/span&gt;&lt;/font&gt;&lt;/div&gt;" style="text;whiteSpace=wrap;html=1;" parent="1" vertex="1">
          <mxGeometry x="60" y="350" width="560" height="80" as="geometry" />
        </mxCell>
        <mxCell id="0DuIZYB2jZfA5ApWnlZL-17" style="edgeStyle=orthogonalEdgeStyle;rounded=0;orthogonalLoop=1;jettySize=auto;html=1;entryX=0.457;entryY=0;entryDx=0;entryDy=0;entryPerimeter=0;" parent="1" source="0DuIZYB2jZfA5ApWnlZL-11" target="0DuIZYB2jZfA5ApWnlZL-15" edge="1">
          <mxGeometry relative="1" as="geometry" />
        </mxCell>
        <mxCell id="0DuIZYB2jZfA5ApWnlZL-18" value="Resultado:&#xa;Ahora challenge tiene 4 columnas nuevas: cardiovascular, neurological, hepatorenal, oncological, con 1 si la etiqueta estaba presente en esa fila, y 0 si no." style="text;whiteSpace=wrap;" parent="1" vertex="1">
          <mxGeometry x="76" y="470" width="554" height="70" as="geometry" />
        </mxCell>
        <mxCell id="0DuIZYB2jZfA5ApWnlZL-22" style="edgeStyle=orthogonalEdgeStyle;rounded=0;orthogonalLoop=1;jettySize=auto;html=1;" parent="1" source="0DuIZYB2jZfA5ApWnlZL-21" edge="1">
          <mxGeometry relative="1" as="geometry">
            <mxPoint x="119.99999999999977" y="710" as="targetPoint" />
          </mxGeometry>
        </mxCell>
        <mxCell id="RaiEYyjb_QK-6UHaHSNt-5" style="edgeStyle=orthogonalEdgeStyle;rounded=0;orthogonalLoop=1;jettySize=auto;html=1;" edge="1" parent="1" source="0DuIZYB2jZfA5ApWnlZL-21" target="0DuIZYB2jZfA5ApWnlZL-27">
          <mxGeometry relative="1" as="geometry" />
        </mxCell>
        <mxCell id="0DuIZYB2jZfA5ApWnlZL-21" value="Revisamos si hay valores nulos" style="rounded=0;whiteSpace=wrap;html=1;" parent="1" vertex="1">
          <mxGeometry x="60" y="590" width="120" height="60" as="geometry" />
        </mxCell>
        <mxCell id="0DuIZYB2jZfA5ApWnlZL-24" style="edgeStyle=orthogonalEdgeStyle;rounded=0;orthogonalLoop=1;jettySize=auto;html=1;" parent="1" source="0DuIZYB2jZfA5ApWnlZL-23" edge="1">
          <mxGeometry relative="1" as="geometry">
            <mxPoint x="259.9999999999998" y="760" as="targetPoint" />
          </mxGeometry>
        </mxCell>
        <mxCell id="0DuIZYB2jZfA5ApWnlZL-23" value="Pasamos a revisar el desbalance entre clases tanto en las combinaciones como en las individuales" style="rounded=0;whiteSpace=wrap;html=1;" parent="1" vertex="1">
          <mxGeometry x="60" y="710" width="130" height="100" as="geometry" />
        </mxCell>
        <mxCell id="RaiEYyjb_QK-6UHaHSNt-3" style="edgeStyle=orthogonalEdgeStyle;rounded=0;orthogonalLoop=1;jettySize=auto;html=1;entryX=0;entryY=0.5;entryDx=0;entryDy=0;" edge="1" parent="1" source="0DuIZYB2jZfA5ApWnlZL-25" target="RaiEYyjb_QK-6UHaHSNt-2">
          <mxGeometry relative="1" as="geometry" />
        </mxCell>
        <mxCell id="0DuIZYB2jZfA5ApWnlZL-25" value="Por problemas con oncológica necesitamos usar pesos,&amp;nbsp;" style="rounded=0;whiteSpace=wrap;html=1;" parent="1" vertex="1">
          <mxGeometry x="260" y="720" width="130" height="100" as="geometry" />
        </mxCell>
        <UserObject label="Concatenas title y abstract en un único string por documento.&#xa;.fillna(&#39;&#39;) → evita NaN si los hubiera (ya sabemos que no hay, pero es buena práctica).&#xa;.str.strip() → elimina espacios sobrantes al inicio/final.&#xa;→ Resultado: una Serie de texto (X_raw) de longitud 3565." id="0DuIZYB2jZfA5ApWnlZL-27">
          <mxCell style="text;whiteSpace=wrap;" parent="1" vertex="1">
            <mxGeometry x="390" y="580" width="380" height="80" as="geometry" />
          </mxCell>
        </UserObject>
        <mxCell id="RaiEYyjb_QK-6UHaHSNt-10" style="edgeStyle=orthogonalEdgeStyle;rounded=0;orthogonalLoop=1;jettySize=auto;html=1;entryX=0.5;entryY=0;entryDx=0;entryDy=0;" edge="1" parent="1" source="RaiEYyjb_QK-6UHaHSNt-2" target="RaiEYyjb_QK-6UHaHSNt-7">
          <mxGeometry relative="1" as="geometry">
            <Array as="points">
              <mxPoint x="582" y="870" />
              <mxPoint x="198" y="870" />
            </Array>
          </mxGeometry>
        </mxCell>
        <mxCell id="RaiEYyjb_QK-6UHaHSNt-2" value="&lt;font style=&quot;font-size: 12px;&quot;&gt;El famoso Max_Len()&lt;/font&gt;&lt;div&gt;&lt;span style=&quot;color: rgba(0, 0, 0, 0.9); font-family: -apple-system, BlinkMacSystemFont, &amp;quot;Segoe UI&amp;quot;, system-ui, -apple-system, &amp;quot;Segoe UI&amp;quot;, Roboto, Ubuntu, Cantarell, &amp;quot;Noto Sans&amp;quot;, sans-serif, Arial, &amp;quot;PingFang SC&amp;quot;, &amp;quot;Source Han Sans SC&amp;quot;, &amp;quot;Microsoft YaHei UI&amp;quot;, &amp;quot;Microsoft YaHei&amp;quot;, &amp;quot;Noto Sans CJK SC&amp;quot;, sans-serif; text-align: left; white-space-collapse: preserve; background-color: rgb(255, 255, 255);&quot;&gt;&lt;font size=&quot;3&quot;&gt; partimos el texto por espacios haciendo una lista.....&lt;/font&gt;&lt;/span&gt;&lt;/div&gt;&lt;div&gt;&lt;span style=&quot;color: rgba(0, 0, 0, 0.9); font-family: -apple-system, BlinkMacSystemFont, &amp;quot;Segoe UI&amp;quot;, system-ui, -apple-system, &amp;quot;Segoe UI&amp;quot;, Roboto, Ubuntu, Cantarell, &amp;quot;Noto Sans&amp;quot;, sans-serif, Arial, &amp;quot;PingFang SC&amp;quot;, &amp;quot;Source Han Sans SC&amp;quot;, &amp;quot;Microsoft YaHei UI&amp;quot;, &amp;quot;Microsoft YaHei&amp;quot;, &amp;quot;Noto Sans CJK SC&amp;quot;, sans-serif; text-align: left; white-space-collapse: preserve; background-color: rgb(255, 255, 255);&quot;&gt;&lt;font size=&quot;3&quot;&gt;Con len contamos la cantidad de palabras resulta en una serie de enteros.&lt;/font&gt;&lt;/span&gt;&lt;/div&gt;" style="rounded=0;whiteSpace=wrap;html=1;" vertex="1" parent="1">
          <mxGeometry x="445" y="720" width="275" height="120" as="geometry" />
        </mxCell>
        <mxCell id="RaiEYyjb_QK-6UHaHSNt-4" style="edgeStyle=orthogonalEdgeStyle;rounded=0;orthogonalLoop=1;jettySize=auto;html=1;entryX=0.475;entryY=0.007;entryDx=0;entryDy=0;entryPerimeter=0;" edge="1" parent="1">
          <mxGeometry relative="1" as="geometry">
            <mxPoint x="340" y="429.51" as="sourcePoint" />
            <mxPoint x="339.1499999999999" y="470" as="targetPoint" />
            <Array as="points">
              <mxPoint x="340" y="450" />
              <mxPoint x="339" y="450" />
            </Array>
          </mxGeometry>
        </mxCell>
        <mxCell id="RaiEYyjb_QK-6UHaHSNt-9" style="edgeStyle=orthogonalEdgeStyle;rounded=0;orthogonalLoop=1;jettySize=auto;html=1;entryX=0;entryY=0.5;entryDx=0;entryDy=0;" edge="1" parent="1" source="RaiEYyjb_QK-6UHaHSNt-7" target="RaiEYyjb_QK-6UHaHSNt-8">
          <mxGeometry relative="1" as="geometry" />
        </mxCell>
        <mxCell id="RaiEYyjb_QK-6UHaHSNt-7" value="De ahi miramos diferentes opciones del len en busca de que corte nos da la menor perdida posible de información." style="rounded=0;whiteSpace=wrap;html=1;" vertex="1" parent="1">
          <mxGeometry x="60" y="910" width="275" height="120" as="geometry" />
        </mxCell>
        <mxCell id="RaiEYyjb_QK-6UHaHSNt-8" value="escogemos 300 debido a que la mayoría&amp;nbsp;&lt;div&gt;de los texto son cortos y la concentración esta de 0 ---100&lt;/div&gt;" style="rounded=0;whiteSpace=wrap;html=1;" vertex="1" parent="1">
          <mxGeometry x="390" y="910" width="185" height="120" as="geometry" />
        </mxCell>
      </root>
    </mxGraphModel>
  </diagram>
</mxfile>
